<?xml version="1.0" encoding="UTF-8" standalone="no"?>
<!DOCTYPE svg PUBLIC "-//W3C//DTD SVG 1.1//EN" "http://www.w3.org/Graphics/SVG/1.1/DTD/svg11.dtd">
<svg width="100%" height="100%" viewBox="0 0 120 120" version="1.1" xmlns="http://www.w3.org/2000/svg" xmlns:xlink="http://www.w3.org/1999/xlink" xml:space="preserve" xmlns:serif="http://www.serif.com/" style="fill-rule:evenodd;clip-rule:evenodd;">
    <path id="MAST" d="M60,15L60,88" style="fill:none;fill-rule:nonzero;stroke:white;stroke-width:2.5px;"/>
    <path id="TOGETHER" d="M60,36L38,55" style="fill:none;fill-rule:nonzero;stroke:white;stroke-width:2px;"/>
    <path id="TOGETHER1" serif:id="TOGETHER" d="M60,36L82,55" style="fill:none;fill-rule:nonzero;stroke:white;stroke-width:2px;"/>
    <path id="HOME" d="M60,55L22,80" style="fill:none;fill-rule:nonzero;stroke:white;stroke-width:2px;"/>
    <path id="HOME1" serif:id="HOME" d="M60,55L98,80" style="fill:none;fill-rule:nonzero;stroke:white;stroke-width:2px;"/>
    <path id="Foundation" d="M22,80L98,80" style="fill:none;fill-rule:nonzero;stroke:white;stroke-width:1.5px;"/>
    <g id="Emergency-Beacon" serif:id="Emergency Beacon" transform="matrix(1,0,0,1,0,8)">
        <path d="M46,28C55.333,18.667 64.667,18.667 74,28" style="fill:none;fill-rule:nonzero;stroke:white;stroke-width:2px;"/>
    </g>
    <g id="Support-Beacon" serif:id="Support Beacon" transform="matrix(1,0,0,1,0,2)">
        <path d="M46,28C55.333,18.667 64.667,18.667 74,28" style="fill:none;fill-rule:nonzero;stroke:white;stroke-width:2px;"/>
    </g>
    <g id="Apex-Beacon" serif:id="Apex Beacon" transform="matrix(1,0,0,1,0,-4)">
        <path d="M46,28C55.333,18.667 64.667,18.667 74,28" style="fill:none;fill-rule:nonzero;stroke:white;stroke-width:2px;"/>
    </g>
</svg>
