<?xml version="1.0" encoding="UTF-8" standalone="no"?>
<svg width="100%" height="100%" viewBox="0 0 120 120" version="1.1" xmlns="http://www.w3.org/2000/svg" xml:space="preserve" style="fill-rule:evenodd;clip-rule:evenodd;">
    <path d="M60,15L60,88" style="fill:none;stroke:#ffffff;stroke-width:2.5px;"/>
    <path d="M60,36L38,55" style="fill:none;stroke:#ffffff;stroke-width:2px;"/>
    <path d="M60,36L82,55" style="fill:none;stroke:#ffffff;stroke-width:2px;"/>
    <path d="M60,55L22,80" style="fill:none;stroke:#ffffff;stroke-width:2px;"/>
    <path d="M60,55L98,80" style="fill:none;stroke:#ffffff;stroke-width:2px;"/>
    <path d="M22,80L98,80" style="fill:none;stroke:#ffffff;stroke-width:1.5px;"/>
    <g transform="matrix(1,0,0,1,0,8)">
        <path d="M46,28C55.333,18.667 64.667,18.667 74,28" style="fill:none;stroke:#ffc700;stroke-width:2px;"/>
    </g>
    <g transform="matrix(1,0,0,1,0,2)">
        <path d="M46,28C55.333,18.667 64.667,18.667 74,28" style="fill:none;stroke:#ffc700;stroke-width:2px;"/>
    </g>
    <g transform="matrix(1,0,0,1,0,-4)">
        <path d="M46,28C55.333,18.667 64.667,18.667 74,28" style="fill:none;stroke:#ffc700;stroke-width:2px;"/>
    </g>
</svg>
