<?xml version="1.0" encoding="UTF-8"?>
<svg width="960" height="540" viewBox="0 0 960 540" xmlns="http://www.w3.org/2000/svg">
  <rect width="960" height="540" fill="#0a0a0a"/>
  <rect x="0" y="520" width="960" height="20" fill="#1f1f1f"/>
  <rect x="0" y="518" width="960" height="2" fill="#ffc700" opacity="0.6"/>
  <text x="48" y="72" fill="#555555" font-family="ui-monospace, monospace" font-size="14" letter-spacing="3">// COMMUNITY</text>
  <text x="48" y="148" fill="#ffc700" font-family="ui-monospace, monospace" font-size="56" font-weight="700" letter-spacing="2">SIGNALFORGE</text>
  <text x="48" y="196" fill="#c9c9c9" font-family="ui-monospace, monospace" font-size="22" letter-spacing="1">Community-powered radio monitoring</text>
  <text x="48" y="232" fill="#555555" font-family="ui-monospace, monospace" font-size="18">Yukon, Oklahoma · Voice in the Storm</text>
  <g transform="translate(720, 120) scale(2.2)">
    <line x1="60" y1="15" x2="60" y2="88" stroke="#ffffff" stroke-width="2.5" stroke-linecap="round"/>
    <line x1="60" y1="36" x2="38" y2="55" stroke="#ffffff" stroke-width="2" stroke-linecap="round"/>
    <line x1="60" y1="36" x2="82" y2="55" stroke="#ffffff" stroke-width="2" stroke-linecap="round"/>
    <line x1="60" y1="55" x2="22" y2="80" stroke="#ffffff" stroke-width="2" stroke-linecap="round"/>
    <line x1="60" y1="55" x2="98" y2="80" stroke="#ffffff" stroke-width="2" stroke-linecap="round"/>
    <line x1="22" y1="80" x2="98" y2="80" stroke="#ffffff" stroke-width="1.5" stroke-linecap="round"/>
    <path d="M46,36 C55.333,26.667 64.667,26.667 74,36" fill="none" stroke="#ffc700" stroke-width="2" stroke-linecap="round"/>
    <path d="M46,30 C55.333,20.667 64.667,20.667 74,30" fill="none" stroke="#ffc700" stroke-width="2" stroke-linecap="round"/>
    <path d="M46,24 C55.333,14.667 64.667,14.667 74,24" fill="none" stroke="#ffc700" stroke-width="2" stroke-linecap="round"/>
  </g>
  <text x="48" y="480" fill="#997700" font-family="ui-monospace, monospace" font-size="13" letter-spacing="2">signalforge.org · p7hub.projectseven.us</text>
</svg>
